<svg xmlns="http://www.w3.org/2000/svg" width="18" height="18" viewBox="0 0 18 18" fill="none">
  <path d="M2.25 3.375C2.25 2.96079 2.58579 2.625 3 2.625H15C15.4142 2.625 15.75 2.96079 15.75 3.375C15.75 3.78921 15.4142 4.125 15 4.125H3C2.58579 4.125 2.25 3.78921 2.25 3.375ZM5.25 14.625C5.25 14.2108 5.58579 13.875 6 13.875H15C15.4142 13.875 15.75 14.2108 15.75 14.625C15.75 15.0392 15.4142 15.375 15 15.375H6C5.58579 15.375 5.25 15.0392 5.25 14.625ZM2.25 10.875C2.25 10.4608 2.58579 10.125 3 10.125H15C15.4142 10.125 15.75 10.4608 15.75 10.875C15.75 11.2892 15.4142 11.625 15 11.625H3C2.58579 11.625 2.25 11.2892 2.25 10.875ZM5.25 7.125C5.25 6.71079 5.58579 6.375 6 6.375H15C15.4142 6.375 15.75 6.71079 15.75 7.125C15.75 7.53921 15.4142 7.875 15 7.875H6C5.58579 7.875 5.25 7.53921 5.25 7.125Z" fill="#75808A"/>
</svg>