<svg xmlns="http://www.w3.org/2000/svg" width="18" height="18" viewBox="0 0 18 18" fill="none">
  <path d="M4.5 3.375C4.5 2.96079 4.83579 2.625 5.25 2.625H12.75C13.1642 2.625 13.5 2.96079 13.5 3.375C13.5 3.78921 13.1642 4.125 12.75 4.125H5.25C4.83579 4.125 4.5 3.78921 4.5 3.375ZM4.5 14.625C4.5 14.2108 4.83579 13.875 5.25 13.875H9.75C10.1642 13.875 10.5 14.2108 10.5 14.625C10.5 15.0392 10.1642 15.375 9.75 15.375H5.25C4.83579 15.375 4.5 15.0392 4.5 14.625ZM4.5 10.875C4.5 10.4608 4.83579 10.125 5.25 10.125H12.75C13.1642 10.125 13.5 10.4608 13.5 10.875C13.5 11.2892 13.1642 11.625 12.75 11.625H5.25C4.83579 11.625 4.5 11.2892 4.5 10.875ZM4.5 7.125C4.5 6.71079 4.83579 6.375 5.25 6.375H9.75C10.1642 6.375 10.5 6.71079 10.5 7.125C10.5 7.53921 10.1642 7.875 9.75 7.875H5.25C4.83579 7.875 4.5 7.53921 4.5 7.125Z" fill="#75808A"/>
</svg>