<svg xmlns="http://www.w3.org/2000/svg" width="18" height="18" viewBox="0 0 18 18" fill="none">
  <path d="M3.00146 3.375C3.00146 2.96079 3.33725 2.625 3.75146 2.625H14.2515C14.6657 2.625 15.0015 2.96079 15.0015 3.375C15.0015 3.78921 14.6657 4.125 14.2515 4.125H3.75146C3.33725 4.125 3.00146 3.78921 3.00146 3.375ZM5.25146 14.625C5.25146 14.2108 5.58725 13.875 6.00147 13.875H12.0015C12.4157 13.875 12.7515 14.2108 12.7515 14.625C12.7515 15.0392 12.4157 15.375 12.0015 15.375H6.00147C5.58725 15.375 5.25146 15.0392 5.25146 14.625ZM5.25146 7.125C5.25146 6.71079 5.58725 6.375 6.00147 6.375H12.0015C12.4157 6.375 12.7515 6.71079 12.7515 7.125C12.7515 7.53921 12.4157 7.875 12.0015 7.875H6.00147C5.58725 7.875 5.25146 7.53921 5.25146 7.125ZM3.00146 10.875C3.00146 10.4608 3.33725 10.125 3.75146 10.125H14.2515C14.6657 10.125 15.0015 10.4608 15.0015 10.875C15.0015 11.2892 14.6657 11.625 14.2515 11.625H3.75146C3.33725 11.625 3.00146 11.2892 3.00146 10.875Z" fill="#75808A"/>
</svg>