<svg width="38" height="38" viewBox="0 0 38 38" fill="none" xmlns="http://www.w3.org/2000/svg">
<path d="M19.0484 23.4998C22.362 23.5265 25.0265 20.862 24.9998 17.5484C24.9731 14.2348 22.2652 11.5269 18.9516 11.5002C15.638 11.4735 12.9735 14.138 13.0002 17.4516C13.0269 20.7652 15.7348 23.4731 19.0484 23.4998Z" stroke="#0C1A7F" stroke-linecap="round"/>
<path d="M18.5 26.5C18.5 26.7761 18.7239 27 19 27C19.2761 27 19.5 26.7761 19.5 26.5H19H18.5ZM19 25.75H18.5V26.5H19H19.5V25.75H19Z" fill="#0C1A7F"/>
<path d="M19.6426 15.25L17.4998 17.5H20.4998L18.3569 19.75" stroke="#0C1A7F" stroke-linecap="round" stroke-linejoin="round"/>
<path d="M20.125 23.5V24.625C20.125 24.9745 20.125 25.1492 20.0679 25.287C19.9918 25.4708 19.8458 25.6168 19.662 25.6929C19.5242 25.75 19.3495 25.75 19 25.75C18.6505 25.75 18.4758 25.75 18.338 25.6929C18.1542 25.6168 18.0082 25.4708 17.9321 25.287C17.875 25.1492 17.875 24.9745 17.875 24.625V23.5" stroke="#0C1A7F"/>
</svg>
