<svg width="38" height="38" viewBox="0 0 38 38" fill="none" xmlns="http://www.w3.org/2000/svg">
<path d="M20.875 24.625H17.125M20.875 24.625C20.875 24.0898 20.875 23.8223 20.9036 23.6447C20.9957 23.0722 21.0118 23.0361 21.3769 22.5856C21.4901 22.4458 21.9104 22.0695 22.7509 21.3169C23.9012 20.2869 24.625 18.7905 24.625 17.125C24.625 14.0184 22.1066 11.5 19 11.5C15.8934 11.5 13.375 14.0184 13.375 17.125C13.375 18.7905 14.0988 20.2869 15.2491 21.3169C16.0896 22.0695 16.5099 22.4458 16.6231 22.5856C16.9882 23.0361 17.0043 23.0722 17.0964 23.6447C17.125 23.8223 17.125 24.0898 17.125 24.625M20.875 24.625C20.875 25.326 20.875 25.6764 20.7243 25.9375C20.6255 26.1085 20.4835 26.2505 20.3125 26.3493C20.0514 26.5 19.701 26.5 19 26.5C18.299 26.5 17.9486 26.5 17.6875 26.3493C17.5165 26.2505 17.3745 26.1085 17.2757 25.9375C17.125 25.6764 17.125 25.326 17.125 24.625" stroke="#0C1A7F"/>
<path d="M19.5893 16.375L17.9821 18.625H20.2321L18.625 20.875" stroke="#0C1A7F" stroke-linecap="round" stroke-linejoin="round"/>
</svg>
