<svg xmlns="http://www.w3.org/2000/svg" width="12" height="12" viewBox="0 0 12 12" fill="none">
  <path d="M3.33333 1C3.33333 0.63181 3.63181 0.333333 4 0.333333H11.3333C11.7015 0.333333 12 0.63181 12 1C12 1.36819 11.7015 1.66667 11.3333 1.66667H4C3.63181 1.66667 3.33333 1.36819 3.33333 1ZM0 1C0 0.447715 0.447715 0 1 0C1.55228 0 2 0.447715 2 1C2 1.55228 1.55228 2 1 2C0.447715 2 0 1.55228 0 1ZM0 5.66667C0 5.11438 0.447715 4.66667 1 4.66667C1.55228 4.66667 2 5.11438 2 5.66667C2 6.21895 1.55228 6.66667 1 6.66667C0.447715 6.66667 0 6.21895 0 5.66667ZM0 10.3333C0 9.78105 0.447715 9.33333 1 9.33333C1.55228 9.33333 2 9.78105 2 10.3333C2 10.8856 1.55228 11.3333 1 11.3333C0.447715 11.3333 0 10.8856 0 10.3333ZM3.33333 5.66667C3.33333 5.29848 3.63181 5 4 5H11.3333C11.7015 5 12 5.29848 12 5.66667C12 6.03486 11.7015 6.33333 11.3333 6.33333H4C3.63181 6.33333 3.33333 6.03486 3.33333 5.66667ZM3.33333 10.3333C3.33333 9.96514 3.63181 9.66667 4 9.66667H11.3333C11.7015 9.66667 12 9.96514 12 10.3333C12 10.7015 11.7015 11 11.3333 11H4C3.63181 11 3.33333 10.7015 3.33333 10.3333Z" fill="#75808A"/>
</svg>