<svg xmlns="http://www.w3.org/2000/svg" width="16" height="16" viewBox="0 0 16 16" fill="none">
  <path d="M1.33203 8.0013C1.33203 5.4873 1.33203 4.22997 2.11336 3.4493C2.89403 2.66797 4.15136 2.66797 6.66536 2.66797H9.33203C11.846 2.66797 13.1034 2.66797 13.884 3.4493C14.6654 4.22997 14.6654 5.4873 14.6654 8.0013V9.33464C14.6654 11.8486 14.6654 13.106 13.884 13.8866C13.1034 14.668 11.846 14.668 9.33203 14.668H6.66536C4.15136 14.668 2.89403 14.668 2.11336 13.8866C1.33203 13.106 1.33203 11.8486 1.33203 9.33464V8.0013Z" stroke="#75808A" stroke-width="0.8"/>
  <path d="M4.66406 2.66797V1.66797M11.3307 2.66797V1.66797M1.66406 6.0013H14.3307" stroke="#75808A" stroke-width="0.8" stroke-linecap="round"/>
  <path d="M12 11.3333C12 11.5101 11.9298 11.6797 11.8047 11.8047C11.6797 11.9298 11.5101 12 11.3333 12C11.1565 12 10.987 11.9298 10.8619 11.8047C10.7369 11.6797 10.6667 11.5101 10.6667 11.3333C10.6667 11.1565 10.7369 10.987 10.8619 10.8619C10.987 10.7369 11.1565 10.6667 11.3333 10.6667C11.5101 10.6667 11.6797 10.7369 11.8047 10.8619C11.9298 10.987 12 11.1565 12 11.3333ZM12 8.66667C12 8.84348 11.9298 9.01305 11.8047 9.13807C11.6797 9.2631 11.5101 9.33333 11.3333 9.33333C11.1565 9.33333 10.987 9.2631 10.8619 9.13807C10.7369 9.01305 10.6667 8.84348 10.6667 8.66667C10.6667 8.48986 10.7369 8.32029 10.8619 8.19526C10.987 8.07024 11.1565 8 11.3333 8C11.5101 8 11.6797 8.07024 11.8047 8.19526C11.9298 8.32029 12 8.48986 12 8.66667ZM8.66667 11.3333C8.66667 11.5101 8.59643 11.6797 8.4714 11.8047C8.34638 11.9298 8.17681 12 8 12C7.82319 12 7.65362 11.9298 7.5286 11.8047C7.40357 11.6797 7.33333 11.5101 7.33333 11.3333C7.33333 11.1565 7.40357 10.987 7.5286 10.8619C7.65362 10.7369 7.82319 10.6667 8 10.6667C8.17681 10.6667 8.34638 10.7369 8.4714 10.8619C8.59643 10.987 8.66667 11.1565 8.66667 11.3333ZM8.66667 8.66667C8.66667 8.84348 8.59643 9.01305 8.4714 9.13807C8.34638 9.2631 8.17681 9.33333 8 9.33333C7.82319 9.33333 7.65362 9.2631 7.5286 9.13807C7.40357 9.01305 7.33333 8.84348 7.33333 8.66667C7.33333 8.48986 7.40357 8.32029 7.5286 8.19526C7.65362 8.07024 7.82319 8 8 8C8.17681 8 8.34638 8.07024 8.4714 8.19526C8.59643 8.32029 8.66667 8.48986 8.66667 8.66667ZM5.33333 11.3333C5.33333 11.5101 5.2631 11.6797 5.13807 11.8047C5.01305 11.9298 4.84348 12 4.66667 12C4.48986 12 4.32029 11.9298 4.19526 11.8047C4.07024 11.6797 4 11.5101 4 11.3333C4 11.1565 4.07024 10.987 4.19526 10.8619C4.32029 10.7369 4.48986 10.6667 4.66667 10.6667C4.84348 10.6667 5.01305 10.7369 5.13807 10.8619C5.2631 10.987 5.33333 11.1565 5.33333 11.3333ZM5.33333 8.66667C5.33333 8.84348 5.2631 9.01305 5.13807 9.13807C5.01305 9.2631 4.84348 9.33333 4.66667 9.33333C4.48986 9.33333 4.32029 9.2631 4.19526 9.13807C4.07024 9.01305 4 8.84348 4 8.66667C4 8.48986 4.07024 8.32029 4.19526 8.19526C4.32029 8.07024 4.48986 8 4.66667 8C4.84348 8 5.01305 8.07024 5.13807 8.19526C5.2631 8.32029 5.33333 8.48986 5.33333 8.66667Z" fill="#75808A"/>
</svg>