<svg width="18" height="18" viewBox="0 0 18 18" fill="none" xmlns="http://www.w3.org/2000/svg">
<path d="M1.875 4.875C1.875 3.21815 3.21815 1.875 4.875 1.875C6.53185 1.875 7.875 3.21815 7.875 4.875C7.875 6.53185 6.53185 7.875 4.875 7.875C3.21815 7.875 1.875 6.53185 1.875 4.875Z" stroke="#75808A"/>
<path d="M10.125 13.125C10.125 11.4681 11.4681 10.125 13.125 10.125C14.7819 10.125 16.125 11.4681 16.125 13.125C16.125 14.7819 14.7819 16.125 13.125 16.125C11.4681 16.125 10.125 14.7819 10.125 13.125Z" stroke="#75808A"/>
<path d="M16.125 4.875C16.125 3.46079 16.125 2.75368 15.6857 2.31434C15.2463 1.875 14.5392 1.875 13.125 1.875C11.7108 1.875 11.0037 1.875 10.5643 2.31434C10.125 2.75368 10.125 3.46079 10.125 4.875C10.125 6.28921 10.125 6.99632 10.5643 7.43566C11.0037 7.875 11.7108 7.875 13.125 7.875C14.5392 7.875 15.2463 7.875 15.6857 7.43566C16.125 6.99632 16.125 6.28921 16.125 4.875Z" stroke="#75808A" stroke-width="1.125"/>
<path d="M7.875 13.125C7.875 11.7108 7.875 11.0037 7.43566 10.5643C6.99632 10.125 6.28921 10.125 4.875 10.125C3.46079 10.125 2.75368 10.125 2.31434 10.5643C1.875 11.0037 1.875 11.7108 1.875 13.125C1.875 14.5392 1.875 15.2463 2.31434 15.6857C2.75368 16.125 3.46079 16.125 4.875 16.125C6.28921 16.125 6.99632 16.125 7.43566 15.6857C7.875 15.2463 7.875 14.5392 7.875 13.125Z" stroke="#75808A" stroke-width="1.125"/>
</svg>
