<svg xmlns="http://www.w3.org/2000/svg" width="16" height="16" viewBox="0 0 16 16" fill="none">
  <path d="M14.6668 8.0013C14.6668 9.31984 14.2758 10.6088 13.5433 11.7051C12.8107 12.8014 11.7696 13.6559 10.5514 14.1605C9.33321 14.6651 7.99277 14.7971 6.69956 14.5399C5.40635 14.2826 4.21847 13.6477 3.28612 12.7153C2.35377 11.783 1.71883 10.5951 1.46159 9.3019C1.20436 8.0087 1.33638 6.66825 1.84097 5.45008C2.34555 4.23191 3.20003 3.19072 4.29636 2.45817C5.39269 1.72563 6.68162 1.33464 8.00016 1.33464" stroke="#333333" stroke-width="0.89" stroke-linecap="round"/>
  <path d="M9.6665 1.54297C12.0092 2.14593 13.8535 3.99026 14.4565 6.33294" stroke="#333333" stroke-width="0.89" stroke-linecap="round"/>
</svg>