<svg width="18" height="18" viewBox="0 0 18 18" fill="none" xmlns="http://www.w3.org/2000/svg">
<path d="M4.66656 3.45078C4.99998 3.228 5.35008 3.03477 5.71282 2.87232C6.74173 2.41154 7.25618 2.18115 7.94059 2.62455C8.625 3.06796 8.625 3.79531 8.625 5.25V6.375C8.625 7.78922 8.625 8.49632 9.06434 8.93566C9.50368 9.375 10.2108 9.375 11.625 9.375H12.75C14.2047 9.375 14.932 9.375 15.3755 10.0594C15.8189 10.7438 15.5885 11.2583 15.1277 12.2872C14.9652 12.6499 14.772 13 14.5492 13.3334C13.7663 14.5051 12.6535 15.4184 11.3516 15.9576C10.0497 16.4969 8.6171 16.638 7.23498 16.3631C5.85287 16.0882 4.58331 15.4096 3.58686 14.4131C2.59041 13.4167 1.91182 12.1471 1.6369 10.765C1.36198 9.38291 1.50308 7.95031 2.04236 6.64838C2.58163 5.34646 3.49486 4.23369 4.66656 3.45078Z" stroke="#75808A"/>
<path d="M16.0845 5.30176C15.4757 3.75624 14.2438 2.52434 12.6983 1.91549C11.5421 1.46002 10.5 2.50737 10.5 3.75001V6.75001C10.5 7.16423 10.8358 7.50001 11.25 7.50001H14.25C15.4926 7.50001 16.54 6.45792 16.0845 5.30176Z" stroke="#75808A"/>
</svg>
