<svg xmlns="http://www.w3.org/2000/svg" width="18" height="18" viewBox="0 0 18 18" fill="none">
  <path d="M13.5 7.5H9.75" stroke="#0C1A7F" stroke-linecap="round"/>
  <path d="M7.5 2.25H12.375C12.7233 2.25 12.8974 2.25 13.0437 2.26925C14.0533 2.40218 14.8478 3.19666 14.9807 4.20631C15 4.35253 15 4.52669 15 4.875" stroke="#0C1A7F"/>
  <path d="M1.5 5.21231C1.5 4.55041 1.5 4.21946 1.55201 3.94379C1.78098 2.73023 2.73023 1.78098 3.94379 1.55201C4.21946 1.5 4.55041 1.5 5.21231 1.5C5.50231 1.5 5.64732 1.5 5.78668 1.51303C6.38749 1.56922 6.95739 1.80528 7.42195 2.19038C7.5297 2.27971 7.63223 2.38225 7.83728 2.58731L8.25 3C8.86185 3.61183 9.16778 3.91775 9.53408 4.12157C9.7353 4.23353 9.94883 4.32195 10.1703 4.38508C10.5734 4.5 11.006 4.5 11.8713 4.5H12.1516C14.1259 4.5 15.113 4.5 15.7547 5.0771C15.8137 5.13018 15.8698 5.18636 15.9229 5.24537C16.5 5.88701 16.5 6.87416 16.5 8.84843V10.5C16.5 13.3284 16.5 14.7427 15.6213 15.6213C14.7427 16.5 13.3284 16.5 10.5 16.5H7.5C4.67157 16.5 3.25736 16.5 2.37868 15.6213C1.5 14.7427 1.5 13.3284 1.5 10.5V5.21231Z" stroke="#0C1A7F"/>
</svg>