<svg width="38" height="38" viewBox="0 0 38 38" fill="none" xmlns="http://www.w3.org/2000/svg">
<path d="M11.5 18.25C11.5 16.1287 11.5 15.068 12.159 14.409C12.818 13.75 13.8787 13.75 16 13.75H19.75C21.8713 13.75 22.932 13.75 23.591 14.409C24.25 15.068 24.25 16.1287 24.25 18.25C24.25 20.3713 24.25 21.432 23.591 22.091C22.932 22.75 21.8713 22.75 19.75 22.75H16C13.8787 22.75 12.818 22.75 12.159 22.091C11.5 21.432 11.5 20.3713 11.5 18.25Z" stroke="#0C1A7F"/>
<path d="M24.25 16.0571C24.9814 16.1291 25.4736 16.2916 25.841 16.659C26.5 17.3181 26.5 18.3787 26.5 20.5C26.5 22.6214 26.5 23.682 25.841 24.341C25.182 25 24.1214 25 22 25H18.25C16.1287 25 15.0681 25 14.4091 24.341C14.0416 23.9736 13.8791 23.4813 13.8071 22.75" stroke="#0C1A7F"/>
<path d="M19.75 18.25C19.75 19.2855 18.9105 20.125 17.875 20.125C16.8395 20.125 16 19.2855 16 18.25C16 17.2145 16.8395 16.375 17.875 16.375C18.9105 16.375 19.75 17.2145 19.75 18.25Z" stroke="#0C1A7F"/>
<path d="M22 19.75L22 16.75" stroke="#0C1A7F" stroke-linecap="round"/>
<path d="M13.75 19.75L13.75 16.75" stroke="#0C1A7F" stroke-linecap="round"/>
</svg>
