<svg width="38" height="38" viewBox="0 0 38 38" fill="none" xmlns="http://www.w3.org/2000/svg">
<path d="M23.635 16.0295L23.9826 15.6819C24.5585 15.106 25.4922 15.106 26.0681 15.6819C26.644 16.2578 26.644 17.1915 26.0681 17.7674L25.7205 18.115M23.635 16.0295C23.635 16.0295 23.6785 16.7681 24.3302 17.4198C24.9819 18.0715 25.7205 18.115 25.7205 18.115M23.635 16.0295L20.4396 19.225C20.2231 19.4414 20.1149 19.5496 20.0218 19.6689C19.9121 19.8097 19.8179 19.962 19.7411 20.1231C19.676 20.2597 19.6276 20.4049 19.5308 20.6953L19.2209 21.625L19.1207 21.9258M25.7205 18.115L22.525 21.3104C22.3086 21.5269 22.2004 21.6351 22.0811 21.7282C21.9403 21.8379 21.788 21.9321 21.6269 22.0089C21.4903 22.074 21.3451 22.1224 21.0547 22.2192L20.125 22.5291L19.8242 22.6293M19.8242 22.6293L19.5234 22.7296C19.3805 22.7772 19.223 22.74 19.1165 22.6335C19.01 22.527 18.9728 22.3695 19.0204 22.2266L19.1207 21.9258M19.8242 22.6293L19.1207 21.9258" stroke="#0C1A7F"/>
<path d="M16 19.75H17.875" stroke="#0C1A7F" stroke-linecap="round"/>
<path d="M16 16.75H20.875" stroke="#0C1A7F" stroke-linecap="round"/>
<path d="M16 22.75H17.125" stroke="#0C1A7F" stroke-linecap="round"/>
<path d="M24.8713 12.3787C23.9926 11.5 22.5784 11.5 19.75 11.5H18.25C15.4216 11.5 14.0074 11.5 13.1287 12.3787C12.25 13.2574 12.25 14.6716 12.25 17.5V20.5C12.25 23.3284 12.25 24.7426 13.1287 25.6213C14.0074 26.5 15.4216 26.5 18.25 26.5H19.75C22.5784 26.5 23.9926 26.5 24.8713 25.6213C25.5786 24.914 25.7166 23.8597 25.7435 22" stroke="#0C1A7F" stroke-linecap="round"/>
</svg>
