<svg width="38" height="38" viewBox="0 0 38 38" fill="none" xmlns="http://www.w3.org/2000/svg">
<path d="M23.2188 25.7499C23.6999 25.3222 24.4251 25.3222 24.9062 25.7499C25.2332 26.0405 25.75 25.8084 25.75 25.371V12.6286C25.75 12.1912 25.2332 11.9591 24.9062 12.2497C24.4251 12.6775 23.6999 12.6775 23.2188 12.2497C22.7376 11.822 22.0124 11.822 21.5312 12.2497C21.0501 12.6775 20.3249 12.6775 19.8438 12.2497C19.3626 11.822 18.6374 11.822 18.1562 12.2497C17.6751 12.6775 16.9499 12.6775 16.4688 12.2497C15.9876 11.822 15.2624 11.822 14.7812 12.2497C14.3001 12.6775 13.5749 12.6775 13.0938 12.2497C12.7668 11.9591 12.25 12.1912 12.25 12.6286V25.371C12.25 25.8084 12.7668 26.0405 13.0938 25.7499C13.5749 25.3222 14.3001 25.3222 14.7812 25.7499C15.2624 26.1776 15.9876 26.1776 16.4688 25.7499C16.9499 25.3222 17.6751 25.3222 18.1562 25.7499C18.6374 26.1776 19.3626 26.1776 19.8438 25.7499C20.3249 25.3222 21.0501 25.3222 21.5312 25.7499C22.0124 26.1776 22.7376 26.1776 23.2188 25.7499Z" stroke="#0C1A7F"/>
<path d="M15.625 21.625H22.375" stroke="#0C1A7F" stroke-linecap="round"/>
<path d="M15.625 19H22.375" stroke="#0C1A7F" stroke-linecap="round"/>
<path d="M15.625 16.375H22.375" stroke="#0C1A7F" stroke-linecap="round"/>
</svg>
