<svg width="18" height="18" viewBox="0 0 18 18" fill="none" xmlns="http://www.w3.org/2000/svg">
<path d="M1.15109 8.22854C1.20635 7.32191 1.23398 6.8686 1.46891 6.43259C1.68355 6.03422 2.09423 5.64781 2.50491 5.45781C2.95441 5.24984 3.46963 5.24984 4.50006 5.24984C4.88412 5.24984 5.07614 5.24984 5.26215 5.21843C5.44604 5.18738 5.62535 5.13358 5.79596 5.05829C5.96854 4.98212 6.12886 4.87642 6.44949 4.66501L6.61369 4.55675C8.52092 3.29923 9.47454 2.67048 10.275 2.94365C10.4285 2.99603 10.5771 3.07163 10.7098 3.16488C11.4018 3.65122 11.4544 4.78275 11.5595 7.0458C11.5985 7.88375 11.625 8.60093 11.625 8.99984C11.625 9.39875 11.5985 10.1159 11.5595 10.9539C11.4544 13.2169 11.4018 14.3485 10.7098 14.8348C10.5771 14.9281 10.4285 15.0037 10.275 15.056C9.47454 15.3292 8.52092 14.7004 6.61369 13.4429L6.44949 13.3347C6.12886 13.1233 5.96854 13.0176 5.79596 12.9414C5.62535 12.8661 5.44604 12.8123 5.26215 12.7813C5.07614 12.7498 4.88412 12.7498 4.50006 12.7498C3.46963 12.7498 2.95441 12.7498 2.50491 12.5419C2.09423 12.3519 1.68355 11.9655 1.46891 11.5671C1.23398 11.1311 1.20635 10.6778 1.15109 9.77114C1.13474 9.50293 1.125 9.24164 1.125 8.99984C1.125 8.75804 1.13474 8.49675 1.15109 8.22854Z" stroke="#75808A"/>
<path d="M15 4.5C15 4.5 16.125 5.85 16.125 9C16.125 12.15 15 13.5 15 13.5" stroke="#75808A" stroke-linecap="round"/>
<path d="M13.5 6.75C13.5 6.75 13.875 7.425 13.875 9C13.875 10.575 13.5 11.25 13.5 11.25" stroke="#75808A" stroke-linecap="round"/>
</svg>
