<svg xmlns="http://www.w3.org/2000/svg" width="18" height="18" viewBox="0 0 18 18" fill="none">
  <path d="M1.15109 8.22878C1.20635 7.32216 1.23398 6.86885 1.46891 6.43283C1.68355 6.03447 2.09423 5.64806 2.50491 5.45805C2.95441 5.25009 3.46963 5.25009 4.50006 5.25009C4.88412 5.25009 5.07614 5.25009 5.26215 5.21867C5.44604 5.18762 5.62535 5.13383 5.79596 5.05853C5.96854 4.98237 6.12886 4.87666 6.44949 4.66526L6.61369 4.55699C8.52092 3.29948 9.47454 2.67072 10.275 2.9439C10.4285 2.99627 10.5771 3.07188 10.7098 3.16512C11.4018 3.65146 11.4544 4.78299 11.5595 7.04605C11.5985 7.88399 11.625 8.60117 11.625 9.00009C11.625 9.399 11.5985 10.1162 11.5595 10.9541C11.4544 13.2172 11.4018 14.3487 10.7098 14.8351C10.5771 14.9283 10.4285 15.0039 10.275 15.0563C9.47454 15.3295 8.52092 14.7007 6.61369 13.4432L6.44949 13.3349C6.12886 13.1235 5.96854 13.0178 5.79596 12.9416C5.62535 12.8663 5.44604 12.8125 5.26215 12.7815C5.07614 12.7501 4.88412 12.7501 4.50006 12.7501C3.46963 12.7501 2.95441 12.7501 2.50491 12.5421C2.09423 12.3521 1.68355 11.9657 1.46891 11.5673C1.23398 11.1313 1.20635 10.678 1.15109 9.77139C1.13474 9.50317 1.125 9.24189 1.125 9.00009C1.125 8.75829 1.13474 8.497 1.15109 8.22878Z" stroke="#0C1A7F"/>
  <path d="M15 4.5C15 4.5 16.125 5.85 16.125 9C16.125 12.15 15 13.5 15 13.5" stroke="#0C1A7F" stroke-linecap="round"/>
  <path d="M13.5 6.75C13.5 6.75 13.875 7.425 13.875 9C13.875 10.575 13.5 11.25 13.5 11.25" stroke="#0C1A7F" stroke-linecap="round"/>
</svg>