<svg width="38" height="38" viewBox="0 0 38 38" fill="none" xmlns="http://www.w3.org/2000/svg">
<rect width="38" height="38" rx="7" fill="#F3F7FF"/>
<path d="M12.25 17.8125C12.25 15.4143 12.25 14.2152 12.5331 13.8118C12.8163 13.4084 13.9437 13.0225 16.1987 12.2506L16.6283 12.1035C17.8037 11.7012 18.3915 11.5 19 11.5C19.6085 11.5 20.1963 11.7012 21.3717 12.1035L21.8013 12.2506C24.0563 13.0225 25.1837 13.4084 25.4669 13.8118C25.75 14.2152 25.75 15.4143 25.75 17.8125C25.75 18.1747 25.75 18.5676 25.75 18.9935C25.75 23.2221 22.5708 25.2741 20.5761 26.1455C20.035 26.3818 19.7644 26.5 19 26.5C18.2356 26.5 17.965 26.3818 17.4239 26.1455C15.4292 25.2741 12.25 23.2221 12.25 18.9935C12.25 18.5676 12.25 18.1747 12.25 17.8125Z" stroke="#0C1A7F"/>
<circle cx="19" cy="16.75" r="1.5" stroke="#0C1A7F"/>
<path d="M22 21.25C22 22.0784 22 22.75 19 22.75C16 22.75 16 22.0784 16 21.25C16 20.4216 17.3431 19.75 19 19.75C20.6569 19.75 22 20.4216 22 21.25Z" stroke="#0C1A7F"/>
</svg>
